<?xml version="1.0" encoding="iso-8859-1"?>
<!-- Uploaded to: SVG Repo, www.svgrepo.com, Generator: SVG Repo Mixer Tools -->
<svg version="1.1" id="Layer_1" xmlns="http://www.w3.org/2000/svg" xmlns:xlink="http://www.w3.org/1999/xlink" 
	 viewBox="0 0 511.999 511.999" xml:space="preserve">
<circle style="fill:#FBCD18;" cx="256.02" cy="256.031" r="247.515"/>
<path style="fill:#FEF7D8;" d="M361.951,303.876c-0.522,0.028-1.047,0.044-1.576,0.044c-16.135,0-29.215-13.079-29.215-29.215
	c0-8.977,4.052-17.004,10.424-22.363c-3.41-16.618-11.54-31.517-22.928-43.23l-125.26,0.001
	c-11.387,11.713-19.517,26.611-22.927,43.23c6.371,5.359,10.424,13.386,10.424,22.363c0,16.135-13.08,29.215-29.215,29.215
	c-0.529,0-1.054-0.016-1.576-0.044c9.257,31.944,33.42,57.396,64.249,75.458v4.02c0,9.51,7.709,17.219,17.219,17.219h48.915
	c9.509,0,17.219-7.709,17.219-17.219v-4.02C328.529,361.274,352.692,335.82,361.951,303.876z"/>
<rect x="209.768" y="238.368" style="fill:#FBCD18;" width="92.514" height="71.172"/>
<g>
	<path style="fill:#FCDE65;" d="M209.765,309.542c0,35.264,30.772,26.73,46.26,37.773c15.489-11.044,46.261-2.51,46.261-37.773
		H209.765z"/>
	<path style="fill:#FCDE65;" d="M270.651,384.26H241.4c-4.661,0-8.438-3.778-8.438-8.438c0-4.66,3.777-8.438,8.438-8.438h29.252
		c4.661,0,8.438,3.778,8.438,8.438C279.089,380.482,275.311,384.26,270.651,384.26z"/>
	<path style="fill:#FCDE65;" d="M256.025,166.539c-14.116,0-27.638-2.536-38.077-7.142c-13.319-5.876-20.653-14.615-20.653-24.605
		c0-18.099,25.248-31.747,58.73-31.747c33.482,0,58.73,13.648,58.73,31.747S289.506,166.539,256.025,166.539z M256.025,119.921
		c-25.963,0-41.854,9.628-41.854,14.871c0,2.237,3.274,5.937,10.589,9.165c8.339,3.68,19.442,5.706,31.264,5.706
		c25.963,0,41.854-9.628,41.854-14.871C297.879,129.549,281.989,119.921,256.025,119.921z"/>
</g>
<g>
	<path style="fill:#FFE991;" d="M163.356,197.178c-4.025,0-7.59-2.891-8.303-6.993c-0.799-4.591,2.275-8.96,6.867-9.759
		l39.338-6.842v-7.425c0-4.102,2.95-7.61,6.992-8.313l46.329-8.058c4.59-0.799,8.961,2.276,9.759,6.867
		c0.799,4.591-2.275,8.96-6.867,9.759l-39.337,6.842v7.425c0,4.102-2.95,7.61-6.992,8.313l-46.33,8.058
		C164.324,197.136,163.836,197.178,163.356,197.178z"/>
	<path style="fill:#FFE991;" d="M348.694,197.178c-0.48,0-0.966-0.042-1.456-0.126l-46.33-8.058
		c-4.042-0.703-6.992-4.211-6.992-8.313v-7.425l-39.337-6.842c-4.591-0.799-7.665-5.167-6.867-9.759
		c0.798-4.591,5.171-7.67,9.759-6.867l46.329,8.058c4.042,0.703,6.992,4.211,6.992,8.313v7.425l39.338,6.842
		c4.591,0.799,7.665,5.167,6.867,9.759C356.284,194.286,352.719,197.178,348.694,197.178z"/>
</g>
<polygon style="fill:#FEF7D8;" points="235.725,309.542 256.025,272.465 276.326,309.542 "/>
<g>
	<polygon style="fill:#FFE991;" points="209.765,309.542 250.366,309.542 230.066,272.465 	"/>
	<polygon style="fill:#FFE991;" points="281.795,272.465 261.494,309.542 302.096,309.542 	"/>
	<path style="fill:#FFE991;" d="M256.025,217.551c-2.534,0-4.933-1.139-6.536-3.101l-16.027-19.625
		c-2.948-3.609-2.412-8.925,1.197-11.873c3.61-2.949,8.926-2.41,11.873,1.198l9.492,11.622l9.492-11.622
		c2.947-3.609,8.264-4.146,11.873-1.198c3.609,2.948,4.146,8.264,1.197,11.873l-16.027,19.625
		C260.958,216.412,258.559,217.551,256.025,217.551z"/>
	<path style="fill:#FFE991;" d="M256.025,451.121c-56.08,0-109.502-24.182-146.566-66.346c-3.077-3.5-2.734-8.832,0.766-11.908
		c3.499-3.078,8.832-2.735,11.909,0.766c33.862,38.52,82.663,60.612,133.892,60.612s100.03-22.092,133.892-60.612
		c3.077-3.5,8.409-3.843,11.909-0.766c3.499,3.077,3.843,8.409,0.766,11.908C365.527,426.938,312.104,451.121,256.025,451.121z"/>
	<path style="fill:#FFE991;" d="M434.883,317.982c-0.8,0-1.613-0.115-2.419-0.356c-4.465-1.334-7.004-6.036-5.668-10.5
		c4.941-16.535,7.446-33.727,7.446-51.097c0-20.19-3.361-40.019-9.988-58.936c-1.541-4.398,0.775-9.212,5.173-10.753
		c4.397-1.542,9.213,0.775,10.755,5.173c7.258,20.715,10.938,42.421,10.938,64.516c0,19.009-2.743,37.826-8.153,55.929
		C441.871,315.617,438.517,317.982,434.883,317.982z"/>
	<path style="fill:#FFE991;" d="M77.167,317.982c-3.633,0-6.988-2.365-8.081-6.024c-5.41-18.103-8.153-36.921-8.153-55.929
		c0-44.764,15.543-88.493,43.767-123.133c27.822-34.145,66.709-58.098,109.499-67.449c4.554-0.993,9.049,1.889,10.045,6.442
		c0.995,4.553-1.89,9.05-6.443,10.045C136.684,99.658,77.808,172.877,77.808,256.028c0,17.371,2.506,34.563,7.446,51.097
		c1.335,4.465-1.203,9.166-5.668,10.5C78.781,317.867,77.967,317.982,77.167,317.982z"/>
	<path style="fill:#FFE991;" d="M313.404,86.812c-0.86,0-1.733-0.132-2.594-0.41c-17.665-5.701-36.098-8.591-54.784-8.591
		c-1.855,0-3.839,0.038-6.243,0.122c-4.647,0.156-8.563-3.484-8.723-8.142c-0.161-4.658,3.485-8.563,8.142-8.724
		c2.601-0.09,4.769-0.132,6.822-0.132c20.449,0,40.625,3.165,59.968,9.407c4.434,1.431,6.869,6.187,5.439,10.622
		C320.278,84.538,316.967,86.812,313.404,86.812z"/>
	<path style="fill:#FFE991;" d="M418.222,172.033c-2.93,0-5.778-1.528-7.335-4.255c-16.612-29.085-40.97-52.853-70.442-68.736
		c-4.102-2.211-5.637-7.329-3.426-11.432c2.211-4.102,7.33-5.638,11.431-3.425c32.255,17.382,58.912,43.394,77.091,75.222
		c2.312,4.047,0.905,9.201-3.142,11.512C421.078,171.674,419.639,172.033,418.222,172.033z"/>
	<path style="fill:#FFE991;" d="M510.594,229.274c0.911,8.798,1.384,17.72,1.384,26.754c0,9.034-0.473,17.956-1.384,26.754
		c-0.022,0-13.99,9.709-13.99,9.709l-13.99-12.646c0.821-7.819,1.238-15.773,1.238-23.818s-0.416-15.998-1.238-23.818l13.99-12.646
		C496.604,219.566,510.572,229.274,510.594,229.274z"/>
	<path style="fill:#FFE991;" d="M477.703,128.045c4.411,7.666,8.472,15.625,12.146,23.878s6.872,16.596,9.618,25.003
		c-0.02,0.009-8.832,14.561-8.832,14.561l-17.925-5.863c-2.43-7.477-5.286-14.913-8.557-22.262
		c-3.272-7.349-6.888-14.446-10.819-21.255l7.637-17.243C460.973,124.866,477.683,128.054,477.703,128.045z"/>
	<path style="fill:#FFE991;" d="M406.483,48.945c7.148,5.21,14.095,10.829,20.808,16.874c6.713,6.045,13.028,12.366,18.956,18.93
		c-0.015,0.017-2.146,16.894-2.146,16.894l-18.759,1.935c-5.261-5.842-10.894-11.475-16.872-16.857
		c-5.979-5.382-12.168-10.396-18.528-15.017l-0.036-18.858C389.906,52.846,406.467,48.962,406.483,48.945z"/>
	<path style="fill:#FFE991;" d="M309.247,5.651c8.65,1.852,17.28,4.159,25.872,6.952c8.592,2.791,16.931,5.998,25.017,9.583
		c-0.007,0.021,4.911,16.306,4.911,16.306l-16.351,9.398c-7.182-3.197-14.619-6.052-22.27-8.537
		c-7.65-2.485-15.344-4.548-23.035-6.183l-7.703-17.214C295.69,15.957,309.24,5.673,309.247,5.651z"/>
	<path style="fill:#FFE991;" d="M202.808,5.65c8.654-1.826,17.478-3.229,26.463-4.173c8.985-0.944,17.907-1.407,26.752-1.42
		c0.002,0.023,11.119,12.899,11.119,12.899l-11.115,15.236c-7.862,0-15.816,0.419-23.817,1.259c-8,0.84-15.867,2.086-23.558,3.721
		L194.614,20.58C194.615,20.579,202.81,5.673,202.808,5.65z"/>
	<path style="fill:#FFE991;" d="M105.57,48.943c7.163-5.188,14.654-10.058,22.478-14.575s15.787-8.569,23.862-12.179
		c0.011,0.019,15.403,7.261,15.403,7.261l-3.957,18.439c-7.182,3.199-14.279,6.815-21.246,10.837s-13.647,8.359-20.008,12.981
		l-17.944-5.794C104.158,65.912,105.582,48.962,105.57,48.943z"/>
	<path style="fill:#FFE991;" d="M34.349,128.04c4.434-7.654,9.296-15.149,14.606-22.457c5.309-7.308,10.937-14.249,16.846-20.831
		c0.018,0.014,17.026,0.368,17.026,0.368l3.885,18.453c-5.261,5.844-10.273,12.034-15.001,18.541
		c-4.729,6.507-9.067,13.188-12.998,19.996l-18.751,2.007C39.961,144.119,34.367,128.054,34.349,128.04z"/>
	<path style="fill:#FFE991;" d="M1.457,229.27c0.938-8.796,2.33-17.621,4.209-26.457c1.879-8.837,4.195-17.466,6.916-25.882
		c0.023,0.005,15.704-6.588,15.704-6.588L39.34,185.62c-2.429,7.477-4.49,15.172-6.162,23.04c-1.672,7.869-2.92,15.735-3.742,23.554
		l-16.313,9.461C13.122,241.676,1.479,229.275,1.457,229.27z"/>
	<path style="fill:#FFE991;" d="M12.581,335.126c-2.72-8.417-5.038-17.045-6.916-25.882c-1.878-8.837-3.271-17.662-4.209-26.457
		c0.023-0.004,11.666-12.406,11.666-12.406l16.313,9.461c0.822,7.819,2.069,15.686,3.742,23.554
		c1.673,7.869,3.733,15.562,6.162,23.04l-11.055,15.277C28.285,341.713,12.604,335.121,12.581,335.126z"/>
	<path style="fill:#FFE991;" d="M65.8,427.305c-5.909-6.582-11.535-13.522-16.846-20.831c-5.31-7.308-10.172-14.805-14.606-22.457
		c0.018-0.013,5.612-16.078,5.612-16.078l18.751,2.007c3.932,6.809,8.27,13.488,12.998,19.996s9.741,12.699,15.001,18.541
		l-3.886,18.453C82.825,426.936,65.818,427.291,65.8,427.305z"/>
	<path style="fill:#FFE991;" d="M151.911,489.869c-8.075-3.61-16.038-7.662-23.862-12.179c-7.824-4.517-15.314-9.388-22.478-14.575
		c0.011-0.019-1.413-16.97-1.413-16.97l17.947-5.793c6.361,4.621,13.042,8.959,20.008,12.981
		c6.966,4.022,14.063,7.639,21.246,10.837l3.956,18.439C167.314,482.608,151.922,489.849,151.911,489.869z"/>
	<path style="fill:#FFE991;" d="M256.023,511.999c-8.845-0.013-17.767-0.476-26.752-1.42c-8.985-0.944-17.809-2.347-26.463-4.173
		c0.002-0.022-8.194-14.929-8.194-14.929l14.039-12.592c7.691,1.634,15.557,2.879,23.558,3.721c8,0.84,15.955,1.258,23.817,1.259
		l11.113,15.236C267.141,499.101,256.025,511.977,256.023,511.999z"/>
	<path style="fill:#FFE991;" d="M360.136,489.87c-8.086,3.586-16.425,6.792-25.017,9.583c-8.592,2.791-17.224,5.099-25.872,6.952
		c-0.007-0.021-13.557-10.306-13.557-10.306l7.703-17.214c7.69-1.635,15.384-3.697,23.035-6.183c7.65-2.486,15.087-5.34,22.27-8.537
		l16.349,9.398C365.047,473.564,360.129,489.849,360.136,489.87z"/>
	<path style="fill:#FFE991;" d="M446.247,427.308c-5.928,6.565-12.243,12.885-18.956,18.93
		c-6.713,6.045-13.661,11.664-20.808,16.874c-0.015-0.017-16.577-3.899-16.577-3.899l0.036-18.858
		c6.36-4.622,12.55-9.635,18.528-15.017c5.977-5.382,11.611-11.014,16.872-16.857l18.758,1.935
		C444.101,410.414,446.232,427.291,446.247,427.308z"/>
	<path style="fill:#FFE991;" d="M499.467,335.129c-2.746,8.408-5.943,16.751-9.618,25.003c-3.674,8.254-7.735,16.211-12.146,23.878
		c-0.02-0.009-16.73,3.179-16.73,3.179l-7.637-17.243c3.931-6.809,7.546-13.907,10.819-21.255
		c3.272-7.349,6.127-14.784,8.557-22.262l17.925-5.862C490.636,320.57,499.446,335.12,499.467,335.129z"/>
</g>
<g>
	<path style="fill:#FCDE65;" d="M510.594,229.274c-0.022,0-27.98,2.936-27.98,2.936c-1.665-16.088-5.007-31.682-9.856-46.6
		c0-0.011,26.698-8.674,26.698-8.674l0.068-0.023C504.958,193.677,508.716,211.194,510.594,229.274z"/>
	<path style="fill:#FCDE65;" d="M477.703,128.045c-0.02,0.009-24.367,14.063-24.367,14.063
		c-8.064-14.021-17.46-26.906-27.958-38.563c-0.004-0.01,20.861-18.783,20.861-18.783l0.053-0.048
		C458.075,97.818,468.633,112.292,477.703,128.045z"/>
	<path style="fill:#FCDE65;" d="M406.483,48.945c-0.015,0.017-16.541,22.758-16.541,22.758
		c-13.07-9.528-26.895-17.479-41.226-23.857c-0.008-0.008,11.418-25.645,11.418-25.645l0.028-0.065
		C376.257,29.315,391.79,38.243,406.483,48.945z"/>
	<path style="fill:#FCDE65;" d="M309.247,5.651c-0.007,0.021-5.854,27.518-5.854,27.518c-15.815-3.388-31.678-5.029-47.365-5.027
		c-0.011-0.003,0-28.072,0-28.072V0C273.65,0.012,291.471,1.852,309.247,5.651z"/>
	<path style="fill:#FCDE65;" d="M202.808,5.65c0.002,0.023,5.845,27.52,5.845,27.52c-15.826,3.338-30.985,8.291-45.314,14.673
		c-0.011,0.001-11.417-25.645-11.417-25.645l-0.029-0.065C167.995,14.977,185.024,9.409,202.808,5.65z"/>
	<path style="fill:#FCDE65;" d="M105.57,48.943c0.011,0.019,16.533,22.763,16.533,22.763c-13.099,9.485-24.933,20.177-35.428,31.835
		c-0.01,0.006-20.861-18.784-20.861-18.784l-0.053-0.047C77.561,71.622,90.852,59.609,105.57,48.943z"/>
	<path style="fill:#FCDE65;" d="M34.349,128.04c0.018,0.014,24.362,14.071,24.362,14.071c-8.109,13.995-14.572,28.574-19.418,43.493
		c-0.007,0.009-26.698-8.675-26.698-8.675l-0.068-0.021C17.985,160.153,25.242,143.772,34.349,128.04z"/>
	<path style="fill:#FCDE65;" d="M1.457,229.27c0.023,0.005,27.979,2.945,27.979,2.945c-1.716,16.083-1.69,32.031-0.048,47.631
		c-0.002,0.011-27.917,2.934-27.917,2.934l-0.071,0.008C-0.431,265.262-0.465,247.345,1.457,229.27z"/>
	<path style="fill:#FCDE65;" d="M12.581,335.126c0.023-0.005,26.759-8.69,26.759-8.69c4.974,15.391,11.485,29.948,19.329,43.533
		c0.002,0.011-24.31,14.035-24.31,14.035l-0.062,0.036C25.496,368.773,18.178,352.419,12.581,335.126z"/>
	<path style="fill:#FCDE65;" d="M65.8,427.305c0.018-0.013,20.91-18.822,20.91-18.822c10.804,12.037,22.672,22.688,35.364,31.908
		c0.007,0.009-16.5,22.711-16.5,22.711l-0.042,0.057C91.284,452.79,77.948,440.827,65.8,427.305z"/>
	<path style="fill:#FCDE65;" d="M151.911,489.869c0.011-0.019,11.448-25.7,11.448-25.7c14.765,6.602,29.94,11.505,45.285,14.765
		c0.01,0.006-5.837,27.458-5.837,27.458l-0.015,0.07C185.557,502.786,168.508,497.282,151.911,489.869z"/>
	<path style="fill:#FCDE65;" d="M256.023,511.999c0.002-0.022,0.005-28.135,0.005-28.135c16.174,0.026,32.032-1.667,47.375-4.93
		c0.011,0.001,5.836,27.458,5.836,27.458l0.016,0.07C292.014,510.114,274.2,512.02,256.023,511.999z"/>
	<path style="fill:#FCDE65;" d="M360.136,489.87c-0.007-0.021-11.44-25.703-11.44-25.703c14.787-6.556,28.585-14.552,41.274-23.774
		c0.011-0.003,16.5,22.711,16.5,22.711l0.043,0.057C392.249,473.509,376.75,482.496,360.136,489.87z"/>
	<path style="fill:#FCDE65;" d="M446.247,427.308c-0.015-0.017-20.905-18.829-20.905-18.829
		c10.842-12.002,20.194-24.92,28.036-38.505c0.008-0.008,24.31,14.036,24.31,14.036l0.062,0.035
		C468.929,399.3,458.426,413.814,446.247,427.308z"/>
	<path style="fill:#FCDE65;" d="M499.467,335.129c-0.02-0.009-26.755-8.698-26.755-8.698c5.022-15.375,8.312-30.979,9.95-46.58
		c0.004-0.01,27.917,2.934,27.917,2.934l0.071,0.007C508.797,300.318,505.104,317.849,499.467,335.129z"/>
</g>
<path style="fill:#FEF7D8;" d="M256.025,166.539c-2.534,0-4.933-1.139-6.536-3.101l-11.12-13.617
	c-2.948-3.609-2.412-8.925,1.197-11.873c3.609-2.95,8.926-2.411,11.873,1.198l4.585,5.614l4.585-5.614
	c2.947-3.609,8.264-4.146,11.873-1.198c3.609,2.948,4.146,8.264,1.197,11.873l-11.12,13.617
	C260.958,165.401,258.559,166.539,256.025,166.539z"/>
</svg>