<!DOCTYPE svg PUBLIC "-//W3C//DTD SVG 1.1//EN" "http://www.w3.org/Graphics/SVG/1.1/DTD/svg11.dtd">

<!-- Uploaded to: SVG Repo, www.svgrepo.com, Transformed by: SVG Repo Mixer Tools -->
<svg fill="#585555" width="800px" height="800px" viewBox="0 0 16 16" xmlns="http://www.w3.org/2000/svg" stroke="#585555" stroke-width="0.00016">

<g id="SVGRepo_bgCarrier" stroke-width="0"/>

<g id="SVGRepo_tracerCarrier" stroke-linecap="round" stroke-linejoin="round" stroke="#CCCCCC" stroke-width="0.128"/>

<g id="SVGRepo_iconCarrier"> <g> <path d="M8,4.31l.75,1.77.31.72.79.06L11.73,7,10.32,8.19l-.62.52.19.78.44,1.81-1.67-1L8,9.91l-.66.4-1.67,1,.44-1.81.19-.78-.62-.52L4.27,7l1.88-.15.79-.06.31-.72L8,4.31M8,1,6.05,5.57,1,6,4.85,9.19,3.67,14,8,11.43,12.33,14,11.15,9.19,15,6,10,5.57,8,1Z"/> </g> </g>

</svg>